<svg xmlns="http://www.w3.org/2000/svg" width="800" height="430" viewBox="55 100 690 300" role="img" aria-labelledby="title desc"><title id="title">Cordone con foro di scarico</title><desc id="desc">Cordone con foro di scarico. Schema tecnico vettoriale a colori, non in scala. Fonte EC3, pagina PDF 25.</desc><defs><marker id="force" viewBox="0 0 10 10" refX="9" refY="5" markerWidth="8" markerHeight="8" orient="auto"><path d="M0,0 L10,5 L0,10 Z" fill="#007f83"/></marker><marker id="dim" viewBox="0 0 10 10" refX="5" refY="5" markerWidth="6" markerHeight="6" orient="auto-start-reverse"><path d="M0,1 L10,5 L0,9 Z" fill="#173d59"/></marker><pattern id="metal" width="13" height="13" patternUnits="userSpaceOnUse" patternTransform="rotate(35)"><rect width="13" height="13" fill="#d2eafa"/><path d="M0,0 V13" stroke="#65a2cb" stroke-width="1"/></pattern></defs><rect x="55" y="100" width="690" height="300" fill="white"/><path d="M145,325 L585,325 L585,313 L145,313 Z" fill="#4596c7" stroke="#173d59" stroke-width="2.3" stroke-linejoin="round" stroke-linecap="round" /><path d="M585,325 L659.25,277.75 L659.25,265.75 L585,313 Z" fill="#8bc6eb" stroke="#173d59" stroke-width="2.3" stroke-linejoin="round" stroke-linecap="round" /><path d="M145,313 L585,313 L659.25,265.75 L219.25,265.75 Z" fill="#d2eafa" stroke="#173d59" stroke-width="2.3" stroke-linejoin="round" stroke-linecap="round" /><path d="M178,292 L618,292 L618,167 L178,167 Z" fill="#4596c7" stroke="#173d59" stroke-width="2.3" stroke-linejoin="round" stroke-linecap="round" /><path d="M618,292 L622.4,289.2 L622.4,164.2 L618,167 Z" fill="#8bc6eb" stroke="#173d59" stroke-width="2.3" stroke-linejoin="round" stroke-linecap="round" /><path d="M178,167 L618,167 L622.4,164.2 L182.4,164.2 Z" fill="#d2eafa" stroke="#173d59" stroke-width="2.3" stroke-linejoin="round" stroke-linecap="round" /><path d="M218.75,141.25 L143.75,141.25" fill="none" stroke="#007f83" stroke-width="3.2" stroke-linejoin="round" stroke-linecap="round" /><path d="M143.75,141.25 L157.75,145.73 L157.75,136.77 Z" fill="#007f83" stroke="#007f83" stroke-width="1" stroke-linejoin="round" stroke-linecap="round" /><path d="M573.75,141.25 L648.75,141.25" fill="none" stroke="#007f83" stroke-width="3.2" stroke-linejoin="round" stroke-linecap="round" /><path d="M648.75,141.25 L634.75,136.77 L634.75,145.73 Z" fill="#007f83" stroke="#007f83" stroke-width="1" stroke-linejoin="round" stroke-linecap="round" /><text x="611.25" y="127.25" fill="#007f83" font-family="Arial, Helvetica, sans-serif" font-size="21" text-anchor="middle">Δσ</text><path d="M383.0,292.0 a30,30 0 0 1 60,0" fill="#d2eafa" stroke="#173d59" stroke-width="2.3" stroke-linejoin="round" stroke-linecap="round" /><path d="M184.7,292.1 L374.7,292.1" fill="none" stroke="#ee8b31" stroke-width="10" stroke-linejoin="round" stroke-linecap="round" /><path d="M191.033,297.1 q5,0 0,-10" fill="none" stroke="#be571d" stroke-width="1" stroke-linejoin="round" stroke-linecap="round" /><path d="M203.7,297.1 q5,0 0,-10" fill="none" stroke="#be571d" stroke-width="1" stroke-linejoin="round" stroke-linecap="round" /><path d="M216.367,297.1 q5,0 0,-10" fill="none" stroke="#be571d" stroke-width="1" stroke-linejoin="round" stroke-linecap="round" /><path d="M229.033,297.1 q5,0 0,-10" fill="none" stroke="#be571d" stroke-width="1" stroke-linejoin="round" stroke-linecap="round" /><path d="M241.7,297.1 q5,0 0,-10" fill="none" stroke="#be571d" stroke-width="1" stroke-linejoin="round" stroke-linecap="round" /><path d="M254.367,297.1 q5,0 0,-10" fill="none" stroke="#be571d" stroke-width="1" stroke-linejoin="round" stroke-linecap="round" /><path d="M267.033,297.1 q5,0 0,-10" fill="none" stroke="#be571d" stroke-width="1" stroke-linejoin="round" stroke-linecap="round" /><path d="M279.7,297.1 q5,0 0,-10" fill="none" stroke="#be571d" stroke-width="1" stroke-linejoin="round" stroke-linecap="round" /><path d="M292.367,297.1 q5,0 0,-10" fill="none" stroke="#be571d" stroke-width="1" stroke-linejoin="round" stroke-linecap="round" /><path d="M305.033,297.1 q5,0 0,-10" fill="none" stroke="#be571d" stroke-width="1" stroke-linejoin="round" stroke-linecap="round" /><path d="M317.7,297.1 q5,0 0,-10" fill="none" stroke="#be571d" stroke-width="1" stroke-linejoin="round" stroke-linecap="round" /><path d="M330.367,297.1 q5,0 0,-10" fill="none" stroke="#be571d" stroke-width="1" stroke-linejoin="round" stroke-linecap="round" /><path d="M343.033,297.1 q5,0 0,-10" fill="none" stroke="#be571d" stroke-width="1" stroke-linejoin="round" stroke-linecap="round" /><path d="M355.7,297.1 q5,0 0,-10" fill="none" stroke="#be571d" stroke-width="1" stroke-linejoin="round" stroke-linecap="round" /><path d="M368.367,297.1 q5,0 0,-10" fill="none" stroke="#be571d" stroke-width="1" stroke-linejoin="round" stroke-linecap="round" /><path d="M444.7,292.1 L604.7,292.1" fill="none" stroke="#ee8b31" stroke-width="10" stroke-linejoin="round" stroke-linecap="round" /><path d="M450.854,297.1 q5,0 0,-10" fill="none" stroke="#be571d" stroke-width="1" stroke-linejoin="round" stroke-linecap="round" /><path d="M463.162,297.1 q5,0 0,-10" fill="none" stroke="#be571d" stroke-width="1" stroke-linejoin="round" stroke-linecap="round" /><path d="M475.469,297.1 q5,0 0,-10" fill="none" stroke="#be571d" stroke-width="1" stroke-linejoin="round" stroke-linecap="round" /><path d="M487.777,297.1 q5,0 0,-10" fill="none" stroke="#be571d" stroke-width="1" stroke-linejoin="round" stroke-linecap="round" /><path d="M500.085,297.1 q5,0 0,-10" fill="none" stroke="#be571d" stroke-width="1" stroke-linejoin="round" stroke-linecap="round" /><path d="M512.392,297.1 q5,0 0,-10" fill="none" stroke="#be571d" stroke-width="1" stroke-linejoin="round" stroke-linecap="round" /><path d="M524.7,297.1 q5,0 0,-10" fill="none" stroke="#be571d" stroke-width="1" stroke-linejoin="round" stroke-linecap="round" /><path d="M537.008,297.1 q5,0 0,-10" fill="none" stroke="#be571d" stroke-width="1" stroke-linejoin="round" stroke-linecap="round" /><path d="M549.315,297.1 q5,0 0,-10" fill="none" stroke="#be571d" stroke-width="1" stroke-linejoin="round" stroke-linecap="round" /><path d="M561.623,297.1 q5,0 0,-10" fill="none" stroke="#be571d" stroke-width="1" stroke-linejoin="round" stroke-linecap="round" /><path d="M573.931,297.1 q5,0 0,-10" fill="none" stroke="#be571d" stroke-width="1" stroke-linejoin="round" stroke-linecap="round" /><path d="M586.238,297.1 q5,0 0,-10" fill="none" stroke="#be571d" stroke-width="1" stroke-linejoin="round" stroke-linecap="round" /><path d="M598.546,297.1 q5,0 0,-10" fill="none" stroke="#be571d" stroke-width="1" stroke-linejoin="round" stroke-linecap="round" /><path d="M413,262 L458,212" fill="none" stroke="#173d59" stroke-width="1.5" stroke-linejoin="round" stroke-linecap="round" /><ellipse cx="413.0" cy="262.0" rx="3" ry="3" fill="#173d59" stroke="#173d59" stroke-width="2.3"/><text x="465" y="207" fill="#173d59" font-family="Arial, Helvetica, sans-serif" font-size="20" text-anchor="start">foro di scarico</text></svg>
