<svg xmlns="http://www.w3.org/2000/svg" width="800" height="500" viewBox="0 0 800 500" role="img" aria-labelledby="title desc"><title id="title">Giunto trasversale di profilo laminato</title><desc id="desc">Giunto trasversale di profilo laminato. Schema tecnico vettoriale a colori, non in scala. Fonte EC3, pagina PDF 26.</desc><defs><marker id="force" viewBox="0 0 10 10" refX="9" refY="5" markerWidth="8" markerHeight="8" orient="auto"><path d="M0,0 L10,5 L0,10 Z" fill="#007f83"/></marker><marker id="dim" viewBox="0 0 10 10" refX="5" refY="5" markerWidth="6" markerHeight="6" orient="auto-start-reverse"><path d="M0,1 L10,5 L0,9 Z" fill="#173d59"/></marker><pattern id="metal" width="13" height="13" patternUnits="userSpaceOnUse" patternTransform="rotate(35)"><rect width="13" height="13" fill="#d2eafa"/><path d="M0,0 V13" stroke="#65a2cb" stroke-width="1"/></pattern></defs><rect width="800" height="500" fill="white"/><path d="M145,325 L585,325 L585,313 L145,313 Z" fill="#4596c7" stroke="#173d59" stroke-width="2.3" stroke-linejoin="round" stroke-linecap="round" /><path d="M585,325 L659.25,277.75 L659.25,265.75 L585,313 Z" fill="#8bc6eb" stroke="#173d59" stroke-width="2.3" stroke-linejoin="round" stroke-linecap="round" /><path d="M145,313 L585,313 L659.25,265.75 L219.25,265.75 Z" fill="#d2eafa" stroke="#173d59" stroke-width="2.3" stroke-linejoin="round" stroke-linecap="round" /><path d="M178,292 L618,292 L618,167 L178,167 Z" fill="#4596c7" stroke="#173d59" stroke-width="2.3" stroke-linejoin="round" stroke-linecap="round" /><path d="M618,292 L622.4,289.2 L622.4,164.2 L618,167 Z" fill="#8bc6eb" stroke="#173d59" stroke-width="2.3" stroke-linejoin="round" stroke-linecap="round" /><path d="M178,167 L618,167 L622.4,164.2 L182.4,164.2 Z" fill="#d2eafa" stroke="#173d59" stroke-width="2.3" stroke-linejoin="round" stroke-linecap="round" /><path d="M145,188 L585,188 L585,176 L145,176 Z" fill="#4596c7" stroke="#173d59" stroke-width="2.3" stroke-linejoin="round" stroke-linecap="round" /><path d="M585,188 L659.25,140.75 L659.25,128.75 L585,176 Z" fill="#8bc6eb" stroke="#173d59" stroke-width="2.3" stroke-linejoin="round" stroke-linecap="round" /><path d="M145,176 L585,176 L659.25,128.75 L219.25,128.75 Z" fill="#d2eafa" stroke="#173d59" stroke-width="2.3" stroke-linejoin="round" stroke-linecap="round" /><path d="M370,176 L444.25,128.75" fill="none" stroke="#ee8b31" stroke-width="10" stroke-linejoin="round" stroke-linecap="round" /><path d="M370,313 L444.25,265.75" fill="none" stroke="#ee8b31" stroke-width="10" stroke-linejoin="round" stroke-linecap="round" /><path d="M401.9,287.7 L401.9,171.7" fill="none" stroke="#ee8b31" stroke-width="10" stroke-linejoin="round" stroke-linecap="round" /><path d="M218.75,141.25 L143.75,141.25" fill="none" stroke="#007f83" stroke-width="3.2" stroke-linejoin="round" stroke-linecap="round" /><path d="M143.75,141.25 L157.75,145.73 L157.75,136.77 Z" fill="#007f83" stroke="#007f83" stroke-width="1" stroke-linejoin="round" stroke-linecap="round" /><path d="M573.75,141.25 L648.75,141.25" fill="none" stroke="#007f83" stroke-width="3.2" stroke-linejoin="round" stroke-linecap="round" /><path d="M648.75,141.25 L634.75,136.77 L634.75,145.73 Z" fill="#007f83" stroke="#007f83" stroke-width="1" stroke-linejoin="round" stroke-linecap="round" /><text x="611.25" y="127.25" fill="#007f83" font-family="Arial, Helvetica, sans-serif" font-size="21" text-anchor="middle">Δσ</text><text x="32" y="43" fill="#173d59" font-family="Arial, Helvetica, sans-serif" font-size="26" text-anchor="start">Giunto trasversale di profilo laminato</text><text x="32" y="74" fill="#55738a" font-family="Arial, Helvetica, sans-serif" font-size="17" text-anchor="start">EC3 · 8.3 · dettaglio 3</text><path d="M32,92 L768,92" fill="none" stroke="#dbe8f0" stroke-width="1" stroke-linejoin="round" stroke-linecap="round" /><path d="M32,410 L768,410" fill="none" stroke="#dbe8f0" stroke-width="1" stroke-linejoin="round" stroke-linecap="round" /><ellipse cx="38" cy="444" rx="5" ry="5" fill="#8bc6eb" stroke="#8bc6eb" stroke-width="2.3"/><text x="52" y="451" fill="#426177" font-family="Arial, Helvetica, sans-serif" font-size="17" text-anchor="start">Metallo</text><ellipse cx="213" cy="444" rx="5" ry="5" fill="#ee8b31" stroke="#ee8b31" stroke-width="2.3"/><text x="227" y="451" fill="#426177" font-family="Arial, Helvetica, sans-serif" font-size="17" text-anchor="start">Saldatura</text><ellipse cx="416" cy="444" rx="5" ry="5" fill="#007f83" stroke="#007f83" stroke-width="2.3"/><text x="430" y="451" fill="#426177" font-family="Arial, Helvetica, sans-serif" font-size="17" text-anchor="start">Azione</text><text x="767" y="483" fill="#718b9e" font-family="Arial, Helvetica, sans-serif" font-size="14" text-anchor="end">SCHEMA NON IN SCALA</text></svg>
