<svg xmlns="http://www.w3.org/2000/svg" width="800" height="500" viewBox="0 0 800 500" role="img" aria-labelledby="title desc"><title id="title">Irrigidimento trasversale</title><desc id="desc">Irrigidimento trasversale. Schema tecnico vettoriale a colori, non in scala. Fonte EC3, pagina PDF 29.</desc><defs><marker id="force" viewBox="0 0 10 10" refX="9" refY="5" markerWidth="8" markerHeight="8" orient="auto"><path d="M0,0 L10,5 L0,10 Z" fill="#007f83"/></marker><marker id="dim" viewBox="0 0 10 10" refX="5" refY="5" markerWidth="6" markerHeight="6" orient="auto-start-reverse"><path d="M0,1 L10,5 L0,9 Z" fill="#173d59"/></marker><pattern id="metal" width="13" height="13" patternUnits="userSpaceOnUse" patternTransform="rotate(35)"><rect width="13" height="13" fill="#d2eafa"/><path d="M0,0 V13" stroke="#65a2cb" stroke-width="1"/></pattern></defs><rect width="800" height="500" fill="white"/><path d="M145,325 L585,325 L585,313 L145,313 Z" fill="#4596c7" stroke="#173d59" stroke-width="2.3" stroke-linejoin="round" stroke-linecap="round" /><path d="M585,325 L659.25,277.75 L659.25,265.75 L585,313 Z" fill="#8bc6eb" stroke="#173d59" stroke-width="2.3" stroke-linejoin="round" stroke-linecap="round" /><path d="M145,313 L585,313 L659.25,265.75 L219.25,265.75 Z" fill="#d2eafa" stroke="#173d59" stroke-width="2.3" stroke-linejoin="round" stroke-linecap="round" /><path d="M400.5,309.5 L408.5,309.5 L408.5,211.5 L400.5,211.5 Z" fill="#4596c7" stroke="#173d59" stroke-width="2.3" stroke-linejoin="round" stroke-linecap="round" /><path d="M408.5,309.5 L471.75,269.25 L471.75,171.25 L408.5,211.5 Z" fill="#8bc6eb" stroke="#173d59" stroke-width="2.3" stroke-linejoin="round" stroke-linecap="round" /><path d="M400.5,211.5 L408.5,211.5 L471.75,171.25 L463.75,171.25 Z" fill="#d2eafa" stroke="#173d59" stroke-width="2.3" stroke-linejoin="round" stroke-linecap="round" /><path d="M396.5,307.5 L459.75,267.25" fill="none" stroke="#ee8b31" stroke-width="10" stroke-linejoin="round" stroke-linecap="round" /><path d="M404.455,308.364 q4.21831,-2.68438 -5.36875,-8.43661" fill="none" stroke="#be571d" stroke-width="1" stroke-linejoin="round" stroke-linecap="round" /><path d="M414.997,301.656 q4.21831,-2.68438 -5.36875,-8.43661" fill="none" stroke="#be571d" stroke-width="1" stroke-linejoin="round" stroke-linecap="round" /><path d="M425.539,294.947 q4.21831,-2.68438 -5.36875,-8.43661" fill="none" stroke="#be571d" stroke-width="1" stroke-linejoin="round" stroke-linecap="round" /><path d="M436.08,288.239 q4.21831,-2.68438 -5.36875,-8.43661" fill="none" stroke="#be571d" stroke-width="1" stroke-linejoin="round" stroke-linecap="round" /><path d="M446.622,281.531 q4.21831,-2.68438 -5.36875,-8.43661" fill="none" stroke="#be571d" stroke-width="1" stroke-linejoin="round" stroke-linecap="round" /><path d="M457.164,274.822 q4.21831,-2.68438 -5.36875,-8.43661" fill="none" stroke="#be571d" stroke-width="1" stroke-linejoin="round" stroke-linecap="round" /><path d="M400.5,196.5 L408.5,196.5" fill="none" stroke="#173d59" stroke-width="1.2" stroke-linejoin="round" stroke-linecap="round" /><path d="M400.5,196.5 L408.5,199.06 L408.5,193.94 Z" fill="#173d59" stroke="#173d59" stroke-width="1" stroke-linejoin="round" stroke-linecap="round" /><path d="M408.5,196.5 L400.5,193.94 L400.5,199.06 Z" fill="#173d59" stroke="#173d59" stroke-width="1" stroke-linejoin="round" stroke-linecap="round" /><text x="422.5" y="202.5" fill="#173d59" font-family="Arial, Helvetica, sans-serif" font-size="20" text-anchor="middle">ℓ</text><path d="M213.25,274.75 L138.25,274.75" fill="none" stroke="#007f83" stroke-width="3.2" stroke-linejoin="round" stroke-linecap="round" /><path d="M138.25,274.75 L152.25,279.23 L152.25,270.27 Z" fill="#007f83" stroke="#007f83" stroke-width="1" stroke-linejoin="round" stroke-linecap="round" /><path d="M568.25,274.75 L643.25,274.75" fill="none" stroke="#007f83" stroke-width="3.2" stroke-linejoin="round" stroke-linecap="round" /><path d="M643.25,274.75 L629.25,270.27 L629.25,279.23 Z" fill="#007f83" stroke="#007f83" stroke-width="1" stroke-linejoin="round" stroke-linecap="round" /><text x="605.75" y="260.75" fill="#007f83" font-family="Arial, Helvetica, sans-serif" font-size="21" text-anchor="middle">Δσ</text><text x="32" y="43" fill="#173d59" font-family="Arial, Helvetica, sans-serif" font-size="26" text-anchor="start">Irrigidimento trasversale</text><text x="32" y="74" fill="#55738a" font-family="Arial, Helvetica, sans-serif" font-size="17" text-anchor="start">EC3 · 8.4 · dettaglio 6</text><path d="M32,92 L768,92" fill="none" stroke="#dbe8f0" stroke-width="1" stroke-linejoin="round" stroke-linecap="round" /><path d="M32,410 L768,410" fill="none" stroke="#dbe8f0" stroke-width="1" stroke-linejoin="round" stroke-linecap="round" /><ellipse cx="38" cy="444" rx="5" ry="5" fill="#8bc6eb" stroke="#8bc6eb" stroke-width="2.3"/><text x="52" y="451" fill="#426177" font-family="Arial, Helvetica, sans-serif" font-size="17" text-anchor="start">Metallo</text><ellipse cx="213" cy="444" rx="5" ry="5" fill="#ee8b31" stroke="#ee8b31" stroke-width="2.3"/><text x="227" y="451" fill="#426177" font-family="Arial, Helvetica, sans-serif" font-size="17" text-anchor="start">Saldatura</text><ellipse cx="416" cy="444" rx="5" ry="5" fill="#007f83" stroke="#007f83" stroke-width="2.3"/><text x="430" y="451" fill="#426177" font-family="Arial, Helvetica, sans-serif" font-size="17" text-anchor="start">Azione</text><text x="767" y="483" fill="#718b9e" font-family="Arial, Helvetica, sans-serif" font-size="14" text-anchor="end">SCHEMA NON IN SCALA</text></svg>
