<svg xmlns="http://www.w3.org/2000/svg" width="800" height="500" viewBox="0 0 800 500" role="img" aria-labelledby="title desc"><title id="title">Giunto saldato da un solo lato</title><desc id="desc">Giunto saldato da un solo lato. Schema tecnico vettoriale a colori, non in scala. Fonte IIW, pagina PDF 50.</desc><defs><marker id="force" viewBox="0 0 10 10" refX="9" refY="5" markerWidth="8" markerHeight="8" orient="auto"><path d="M0,0 L10,5 L0,10 Z" fill="#007f83"/></marker><marker id="dim" viewBox="0 0 10 10" refX="5" refY="5" markerWidth="6" markerHeight="6" orient="auto-start-reverse"><path d="M0,1 L10,5 L0,9 Z" fill="#173d59"/></marker><pattern id="metal" width="13" height="13" patternUnits="userSpaceOnUse" patternTransform="rotate(35)"><rect width="13" height="13" fill="#d2eafa"/><path d="M0,0 V13" stroke="#65a2cb" stroke-width="1"/></pattern></defs><rect width="800" height="500" fill="white"/><path d="M145,325 L585,325 L585,313 L145,313 Z" fill="#4596c7" stroke="#173d59" stroke-width="2.3" stroke-linejoin="round" stroke-linecap="round" /><path d="M585,325 L659.25,277.75 L659.25,265.75 L585,313 Z" fill="#8bc6eb" stroke="#173d59" stroke-width="2.3" stroke-linejoin="round" stroke-linecap="round" /><path d="M145,313 L585,313 L659.25,265.75 L219.25,265.75 Z" fill="#d2eafa" stroke="#173d59" stroke-width="2.3" stroke-linejoin="round" stroke-linecap="round" /><path d="M360,312 L434.25,264.75" fill="none" stroke="#ee8b31" stroke-width="10" stroke-linejoin="round" stroke-linecap="round" /><path d="M367.988,312.843 q4.21831,-2.68438 -5.36875,-8.43661" fill="none" stroke="#be571d" stroke-width="1" stroke-linejoin="round" stroke-linecap="round" /><path d="M378.595,306.093 q4.21831,-2.68438 -5.36875,-8.43661" fill="none" stroke="#be571d" stroke-width="1" stroke-linejoin="round" stroke-linecap="round" /><path d="M389.202,299.343 q4.21831,-2.68438 -5.36875,-8.43661" fill="none" stroke="#be571d" stroke-width="1" stroke-linejoin="round" stroke-linecap="round" /><path d="M399.809,292.593 q4.21831,-2.68438 -5.36875,-8.43661" fill="none" stroke="#be571d" stroke-width="1" stroke-linejoin="round" stroke-linecap="round" /><path d="M410.417,285.843 q4.21831,-2.68438 -5.36875,-8.43661" fill="none" stroke="#be571d" stroke-width="1" stroke-linejoin="round" stroke-linecap="round" /><path d="M421.024,279.093 q4.21831,-2.68438 -5.36875,-8.43661" fill="none" stroke="#be571d" stroke-width="1" stroke-linejoin="round" stroke-linecap="round" /><path d="M431.631,272.343 q4.21831,-2.68438 -5.36875,-8.43661" fill="none" stroke="#be571d" stroke-width="1" stroke-linejoin="round" stroke-linecap="round" /><path d="M360,317 L380,373" fill="none" stroke="#ab3760" stroke-width="1.5" stroke-linejoin="round" stroke-linecap="round" /><ellipse cx="360.0" cy="317.0" rx="3" ry="3" fill="#ab3760" stroke="#ab3760" stroke-width="2.3"/><text x="387" y="368" fill="#ab3760" font-family="Arial, Helvetica, sans-serif" font-size="20" text-anchor="start">radice</text><path d="M218.75,276.25 L143.75,276.25" fill="none" stroke="#007f83" stroke-width="3.2" stroke-linejoin="round" stroke-linecap="round" /><path d="M143.75,276.25 L157.75,280.73 L157.75,271.77 Z" fill="#007f83" stroke="#007f83" stroke-width="1" stroke-linejoin="round" stroke-linecap="round" /><path d="M573.75,276.25 L648.75,276.25" fill="none" stroke="#007f83" stroke-width="3.2" stroke-linejoin="round" stroke-linecap="round" /><path d="M648.75,276.25 L634.75,271.77 L634.75,280.73 Z" fill="#007f83" stroke="#007f83" stroke-width="1" stroke-linejoin="round" stroke-linecap="round" /><text x="611.25" y="262.25" fill="#007f83" font-family="Arial, Helvetica, sans-serif" font-size="21" text-anchor="middle">Δσ</text><text x="32" y="43" fill="#173d59" font-family="Arial, Helvetica, sans-serif" font-size="26" text-anchor="start">Giunto saldato da un solo lato</text><text x="32" y="74" fill="#55738a" font-family="Arial, Helvetica, sans-serif" font-size="17" text-anchor="start">IIW · 3.2-1 · dettaglio 216</text><path d="M32,92 L768,92" fill="none" stroke="#dbe8f0" stroke-width="1" stroke-linejoin="round" stroke-linecap="round" /><path d="M32,410 L768,410" fill="none" stroke="#dbe8f0" stroke-width="1" stroke-linejoin="round" stroke-linecap="round" /><ellipse cx="38" cy="444" rx="5" ry="5" fill="#8bc6eb" stroke="#8bc6eb" stroke-width="2.3"/><text x="52" y="451" fill="#426177" font-family="Arial, Helvetica, sans-serif" font-size="17" text-anchor="start">Metallo</text><ellipse cx="213" cy="444" rx="5" ry="5" fill="#ee8b31" stroke="#ee8b31" stroke-width="2.3"/><text x="227" y="451" fill="#426177" font-family="Arial, Helvetica, sans-serif" font-size="17" text-anchor="start">Saldatura</text><ellipse cx="416" cy="444" rx="5" ry="5" fill="#007f83" stroke="#007f83" stroke-width="2.3"/><text x="430" y="451" fill="#426177" font-family="Arial, Helvetica, sans-serif" font-size="17" text-anchor="start">Azione</text><text x="767" y="483" fill="#718b9e" font-family="Arial, Helvetica, sans-serif" font-size="14" text-anchor="end">SCHEMA NON IN SCALA</text></svg>
