<svg xmlns="http://www.w3.org/2000/svg" width="800" height="500" viewBox="0 0 800 500" role="img" aria-labelledby="title desc"><title id="title">Coprigiunti doppi · bulloni precaricati</title><desc id="desc">Coprigiunti doppi · bulloni precaricati. Schema tecnico vettoriale a colori, non in scala. Fonte NTC, pagina PDF 127.</desc><defs><marker id="force" viewBox="0 0 10 10" refX="9" refY="5" markerWidth="8" markerHeight="8" orient="auto"><path d="M0,0 L10,5 L0,10 Z" fill="#007f83"/></marker><marker id="dim" viewBox="0 0 10 10" refX="5" refY="5" markerWidth="6" markerHeight="6" orient="auto-start-reverse"><path d="M0,1 L10,5 L0,9 Z" fill="#173d59"/></marker><pattern id="metal" width="13" height="13" patternUnits="userSpaceOnUse" patternTransform="rotate(35)"><rect width="13" height="13" fill="#d2eafa"/><path d="M0,0 V13" stroke="#65a2cb" stroke-width="1"/></pattern></defs><rect width="800" height="500" fill="white"/><path d="M145,325 L585,325 L585,313 L145,313 Z" fill="#4596c7" stroke="#173d59" stroke-width="2.3" stroke-linejoin="round" stroke-linecap="round" /><path d="M585,325 L659.25,277.75 L659.25,265.75 L585,313 Z" fill="#8bc6eb" stroke="#173d59" stroke-width="2.3" stroke-linejoin="round" stroke-linecap="round" /><path d="M145,313 L585,313 L659.25,265.75 L219.25,265.75 Z" fill="#d2eafa" stroke="#173d59" stroke-width="2.3" stroke-linejoin="round" stroke-linecap="round" /><path d="M292.75,311.25 L522.75,311.25 L522.75,299.25 L292.75,299.25 Z" fill="#4596c7" stroke="#173d59" stroke-width="2.3" stroke-linejoin="round" stroke-linecap="round" /><path d="M522.75,311.25 L591.5,267.5 L591.5,255.5 L522.75,299.25 Z" fill="#8bc6eb" stroke="#173d59" stroke-width="2.3" stroke-linejoin="round" stroke-linecap="round" /><path d="M292.75,299.25 L522.75,299.25 L591.5,255.5 L361.5,255.5 Z" fill="#d2eafa" stroke="#173d59" stroke-width="2.3" stroke-linejoin="round" stroke-linecap="round" /><path d="M292.75,335.25 L522.75,335.25 L522.75,323.25 L292.75,323.25 Z" fill="#4596c7" stroke="#173d59" stroke-width="2.3" stroke-linejoin="round" stroke-linecap="round" /><path d="M522.75,335.25 L591.5,291.5 L591.5,279.5 L522.75,323.25 Z" fill="#8bc6eb" stroke="#173d59" stroke-width="2.3" stroke-linejoin="round" stroke-linecap="round" /><path d="M292.75,323.25 L522.75,323.25 L591.5,279.5 L361.5,279.5 Z" fill="#d2eafa" stroke="#173d59" stroke-width="2.3" stroke-linejoin="round" stroke-linecap="round" /><ellipse cx="334.85" cy="289.55" rx="7" ry="4" fill="#496a82" stroke="#173d59" stroke-width="2.3"/><ellipse cx="334.85" cy="284.55" rx="7" ry="4" fill="#b3c9d8" stroke="#173d59" stroke-width="2.3"/><path d="M327.85,289.55 L327.85,284.55" fill="none" stroke="#173d59" stroke-width="2.3" stroke-linejoin="round" stroke-linecap="round" /><ellipse cx="376.65" cy="262.95" rx="7" ry="4" fill="#496a82" stroke="#173d59" stroke-width="2.3"/><ellipse cx="376.65" cy="257.95" rx="7" ry="4" fill="#b3c9d8" stroke="#173d59" stroke-width="2.3"/><path d="M369.65,262.95 L369.65,257.95" fill="none" stroke="#173d59" stroke-width="2.3" stroke-linejoin="round" stroke-linecap="round" /><ellipse cx="404.85" cy="289.55" rx="7" ry="4" fill="#496a82" stroke="#173d59" stroke-width="2.3"/><ellipse cx="404.85" cy="284.55" rx="7" ry="4" fill="#b3c9d8" stroke="#173d59" stroke-width="2.3"/><path d="M397.85,289.55 L397.85,284.55" fill="none" stroke="#173d59" stroke-width="2.3" stroke-linejoin="round" stroke-linecap="round" /><ellipse cx="446.65" cy="262.95" rx="7" ry="4" fill="#496a82" stroke="#173d59" stroke-width="2.3"/><ellipse cx="446.65" cy="257.95" rx="7" ry="4" fill="#b3c9d8" stroke="#173d59" stroke-width="2.3"/><path d="M439.65,262.95 L439.65,257.95" fill="none" stroke="#173d59" stroke-width="2.3" stroke-linejoin="round" stroke-linecap="round" /><ellipse cx="494.85" cy="289.55" rx="7" ry="4" fill="#496a82" stroke="#173d59" stroke-width="2.3"/><ellipse cx="494.85" cy="284.55" rx="7" ry="4" fill="#b3c9d8" stroke="#173d59" stroke-width="2.3"/><path d="M487.85,289.55 L487.85,284.55" fill="none" stroke="#173d59" stroke-width="2.3" stroke-linejoin="round" stroke-linecap="round" /><ellipse cx="536.65" cy="262.95" rx="7" ry="4" fill="#496a82" stroke="#173d59" stroke-width="2.3"/><ellipse cx="536.65" cy="257.95" rx="7" ry="4" fill="#b3c9d8" stroke="#173d59" stroke-width="2.3"/><path d="M529.65,262.95 L529.65,257.95" fill="none" stroke="#173d59" stroke-width="2.3" stroke-linejoin="round" stroke-linecap="round" /><path d="M218.75,276.25 L143.75,276.25" fill="none" stroke="#007f83" stroke-width="3.2" stroke-linejoin="round" stroke-linecap="round" /><path d="M143.75,276.25 L157.75,280.73 L157.75,271.77 Z" fill="#007f83" stroke="#007f83" stroke-width="1" stroke-linejoin="round" stroke-linecap="round" /><path d="M573.75,276.25 L648.75,276.25" fill="none" stroke="#007f83" stroke-width="3.2" stroke-linejoin="round" stroke-linecap="round" /><path d="M648.75,276.25 L634.75,271.77 L634.75,280.73 Z" fill="#007f83" stroke="#007f83" stroke-width="1" stroke-linejoin="round" stroke-linecap="round" /><text x="611.25" y="262.25" fill="#007f83" font-family="Arial, Helvetica, sans-serif" font-size="21" text-anchor="middle">Δσ</text><text x="32" y="43" fill="#173d59" font-family="Arial, Helvetica, sans-serif" font-size="26" text-anchor="start">Coprigiunti doppi · bulloni precaricati</text><text x="32" y="74" fill="#55738a" font-family="Arial, Helvetica, sans-serif" font-size="17" text-anchor="start">NTC · C4.2.XII.d · dettaglio 8</text><path d="M32,92 L768,92" fill="none" stroke="#dbe8f0" stroke-width="1" stroke-linejoin="round" stroke-linecap="round" /><path d="M32,410 L768,410" fill="none" stroke="#dbe8f0" stroke-width="1" stroke-linejoin="round" stroke-linecap="round" /><ellipse cx="38" cy="444" rx="5" ry="5" fill="#8bc6eb" stroke="#8bc6eb" stroke-width="2.3"/><text x="52" y="451" fill="#426177" font-family="Arial, Helvetica, sans-serif" font-size="17" text-anchor="start">Metallo</text><ellipse cx="213" cy="444" rx="5" ry="5" fill="#ee8b31" stroke="#ee8b31" stroke-width="2.3"/><text x="227" y="451" fill="#426177" font-family="Arial, Helvetica, sans-serif" font-size="17" text-anchor="start">Saldatura</text><ellipse cx="416" cy="444" rx="5" ry="5" fill="#007f83" stroke="#007f83" stroke-width="2.3"/><text x="430" y="451" fill="#426177" font-family="Arial, Helvetica, sans-serif" font-size="17" text-anchor="start">Azione</text><text x="767" y="483" fill="#718b9e" font-family="Arial, Helvetica, sans-serif" font-size="14" text-anchor="end">SCHEMA NON IN SCALA</text></svg>
