<svg xmlns="http://www.w3.org/2000/svg" width="800" height="500" viewBox="0 0 800 500" role="img" aria-labelledby="title desc"><title id="title">Attacco su pannello flessibile</title><desc id="desc">Attacco su pannello flessibile. Schema tecnico vettoriale a colori, non in scala. Fonte NTC, pagina PDF 131.</desc><defs><marker id="force" viewBox="0 0 10 10" refX="9" refY="5" markerWidth="8" markerHeight="8" orient="auto"><path d="M0,0 L10,5 L0,10 Z" fill="#007f83"/></marker><marker id="dim" viewBox="0 0 10 10" refX="5" refY="5" markerWidth="6" markerHeight="6" orient="auto-start-reverse"><path d="M0,1 L10,5 L0,9 Z" fill="#173d59"/></marker><pattern id="metal" width="13" height="13" patternUnits="userSpaceOnUse" patternTransform="rotate(35)"><rect width="13" height="13" fill="#d2eafa"/><path d="M0,0 V13" stroke="#65a2cb" stroke-width="1"/></pattern></defs><rect width="800" height="500" fill="white"/><path d="M220,142 Q239,170 226,205 Q213,236 229,270 Q244,303 232,340 L258,356 Q265,321 249,282 Q233,243 247,211 Q260,175 243,142 Z" fill="#d2eafa" stroke="#173d59" stroke-width="2.3" stroke-linejoin="round" stroke-linecap="round" /><rect x="248" y="256" width="286" height="27" rx="0" fill="#8bc6eb" stroke="#173d59" stroke-width="2.3"/><path d="M248,235 L248,256 L274,256 Z" fill="#ee8b31" stroke="#be571d" stroke-width="2.3" stroke-linejoin="round" stroke-linecap="round" /><path d="M550,269 L636,269" fill="none" stroke="#007f83" stroke-width="3.2" stroke-linejoin="round" stroke-linecap="round" /><path d="M636,269 L622,264.52 L622,273.48 Z" fill="#007f83" stroke="#007f83" stroke-width="1" stroke-linejoin="round" stroke-linecap="round" /><text x="593" y="255" fill="#007f83" font-family="Arial, Helvetica, sans-serif" font-size="21" text-anchor="middle">Δσ</text><text x="315" y="186" fill="#173d59" font-family="Arial, Helvetica, sans-serif" font-size="23" text-anchor="start">pannello flessibile</text><path d="M261,232 L287,232" fill="none" stroke="#173d59" stroke-width="1.2" stroke-linejoin="round" stroke-linecap="round" /><path d="M261,232 L269,234.56 L269,229.44 Z" fill="#173d59" stroke="#173d59" stroke-width="1" stroke-linejoin="round" stroke-linecap="round" /><path d="M287,232 L279,229.44 L279,234.56 Z" fill="#173d59" stroke="#173d59" stroke-width="1" stroke-linejoin="round" stroke-linecap="round" /><text x="274" y="223" fill="#173d59" font-family="Arial, Helvetica, sans-serif" font-size="20" text-anchor="middle">ℓ</text><text x="32" y="43" fill="#173d59" font-family="Arial, Helvetica, sans-serif" font-size="26" text-anchor="start">Attacco su pannello flessibile</text><text x="32" y="74" fill="#55738a" font-family="Arial, Helvetica, sans-serif" font-size="17" text-anchor="start">NTC · C4.2.XVI.a · dettaglio 2</text><path d="M32,92 L768,92" fill="none" stroke="#dbe8f0" stroke-width="1" stroke-linejoin="round" stroke-linecap="round" /><path d="M32,410 L768,410" fill="none" stroke="#dbe8f0" stroke-width="1" stroke-linejoin="round" stroke-linecap="round" /><ellipse cx="38" cy="444" rx="5" ry="5" fill="#8bc6eb" stroke="#8bc6eb" stroke-width="2.3"/><text x="52" y="451" fill="#426177" font-family="Arial, Helvetica, sans-serif" font-size="17" text-anchor="start">Metallo</text><ellipse cx="213" cy="444" rx="5" ry="5" fill="#ee8b31" stroke="#ee8b31" stroke-width="2.3"/><text x="227" y="451" fill="#426177" font-family="Arial, Helvetica, sans-serif" font-size="17" text-anchor="start">Saldatura</text><ellipse cx="416" cy="444" rx="5" ry="5" fill="#007f83" stroke="#007f83" stroke-width="2.3"/><text x="430" y="451" fill="#426177" font-family="Arial, Helvetica, sans-serif" font-size="17" text-anchor="start">Azione</text><text x="767" y="483" fill="#718b9e" font-family="Arial, Helvetica, sans-serif" font-size="14" text-anchor="end">SCHEMA NON IN SCALA</text></svg>
