<svg xmlns="http://www.w3.org/2000/svg" width="800" height="500" viewBox="0 0 800 500" role="img" aria-labelledby="title desc"><title id="title">Giunto tra spessori diversi</title><desc id="desc">Giunto tra spessori diversi. Schema tecnico vettoriale a colori, non in scala. Fonte NTC, pagina PDF 130.</desc><defs><marker id="force" viewBox="0 0 10 10" refX="9" refY="5" markerWidth="8" markerHeight="8" orient="auto"><path d="M0,0 L10,5 L0,10 Z" fill="#007f83"/></marker><marker id="dim" viewBox="0 0 10 10" refX="5" refY="5" markerWidth="6" markerHeight="6" orient="auto-start-reverse"><path d="M0,1 L10,5 L0,9 Z" fill="#173d59"/></marker><pattern id="metal" width="13" height="13" patternUnits="userSpaceOnUse" patternTransform="rotate(35)"><rect width="13" height="13" fill="#d2eafa"/><path d="M0,0 V13" stroke="#65a2cb" stroke-width="1"/></pattern></defs><rect width="800" height="500" fill="white"/><rect x="145" y="230" width="255" height="45" rx="0" fill="#d2eafa" stroke="#173d59" stroke-width="2.3"/><path d="M145,233 L148,230" fill="none" stroke="#65a2cb" stroke-width="1" stroke-linejoin="round" stroke-linecap="round" /><path d="M145,247 L162,230" fill="none" stroke="#65a2cb" stroke-width="1" stroke-linejoin="round" stroke-linecap="round" /><path d="M145,261 L176,230" fill="none" stroke="#65a2cb" stroke-width="1" stroke-linejoin="round" stroke-linecap="round" /><path d="M145,275 L190,230" fill="none" stroke="#65a2cb" stroke-width="1" stroke-linejoin="round" stroke-linecap="round" /><path d="M159,275 L204,230" fill="none" stroke="#65a2cb" stroke-width="1" stroke-linejoin="round" stroke-linecap="round" /><path d="M173,275 L218,230" fill="none" stroke="#65a2cb" stroke-width="1" stroke-linejoin="round" stroke-linecap="round" /><path d="M187,275 L232,230" fill="none" stroke="#65a2cb" stroke-width="1" stroke-linejoin="round" stroke-linecap="round" /><path d="M201,275 L246,230" fill="none" stroke="#65a2cb" stroke-width="1" stroke-linejoin="round" stroke-linecap="round" /><path d="M215,275 L260,230" fill="none" stroke="#65a2cb" stroke-width="1" stroke-linejoin="round" stroke-linecap="round" /><path d="M229,275 L274,230" fill="none" stroke="#65a2cb" stroke-width="1" stroke-linejoin="round" stroke-linecap="round" /><path d="M243,275 L288,230" fill="none" stroke="#65a2cb" stroke-width="1" stroke-linejoin="round" stroke-linecap="round" /><path d="M257,275 L302,230" fill="none" stroke="#65a2cb" stroke-width="1" stroke-linejoin="round" stroke-linecap="round" /><path d="M271,275 L316,230" fill="none" stroke="#65a2cb" stroke-width="1" stroke-linejoin="round" stroke-linecap="round" /><path d="M285,275 L330,230" fill="none" stroke="#65a2cb" stroke-width="1" stroke-linejoin="round" stroke-linecap="round" /><path d="M299,275 L344,230" fill="none" stroke="#65a2cb" stroke-width="1" stroke-linejoin="round" stroke-linecap="round" /><path d="M313,275 L358,230" fill="none" stroke="#65a2cb" stroke-width="1" stroke-linejoin="round" stroke-linecap="round" /><path d="M327,275 L372,230" fill="none" stroke="#65a2cb" stroke-width="1" stroke-linejoin="round" stroke-linecap="round" /><path d="M341,275 L386,230" fill="none" stroke="#65a2cb" stroke-width="1" stroke-linejoin="round" stroke-linecap="round" /><path d="M355,275 L400,230" fill="none" stroke="#65a2cb" stroke-width="1" stroke-linejoin="round" stroke-linecap="round" /><path d="M369,275 L400,244" fill="none" stroke="#65a2cb" stroke-width="1" stroke-linejoin="round" stroke-linecap="round" /><path d="M383,275 L400,258" fill="none" stroke="#65a2cb" stroke-width="1" stroke-linejoin="round" stroke-linecap="round" /><path d="M397,275 L400,272" fill="none" stroke="#65a2cb" stroke-width="1" stroke-linejoin="round" stroke-linecap="round" /><rect x="400" y="230" width="255" height="45" rx="0" fill="#d2eafa" stroke="#173d59" stroke-width="2.3"/><path d="M400,244 L414,230" fill="none" stroke="#65a2cb" stroke-width="1" stroke-linejoin="round" stroke-linecap="round" /><path d="M400,258 L428,230" fill="none" stroke="#65a2cb" stroke-width="1" stroke-linejoin="round" stroke-linecap="round" /><path d="M400,272 L442,230" fill="none" stroke="#65a2cb" stroke-width="1" stroke-linejoin="round" stroke-linecap="round" /><path d="M411,275 L456,230" fill="none" stroke="#65a2cb" stroke-width="1" stroke-linejoin="round" stroke-linecap="round" /><path d="M425,275 L470,230" fill="none" stroke="#65a2cb" stroke-width="1" stroke-linejoin="round" stroke-linecap="round" /><path d="M439,275 L484,230" fill="none" stroke="#65a2cb" stroke-width="1" stroke-linejoin="round" stroke-linecap="round" /><path d="M453,275 L498,230" fill="none" stroke="#65a2cb" stroke-width="1" stroke-linejoin="round" stroke-linecap="round" /><path d="M467,275 L512,230" fill="none" stroke="#65a2cb" stroke-width="1" stroke-linejoin="round" stroke-linecap="round" /><path d="M481,275 L526,230" fill="none" stroke="#65a2cb" stroke-width="1" stroke-linejoin="round" stroke-linecap="round" /><path d="M495,275 L540,230" fill="none" stroke="#65a2cb" stroke-width="1" stroke-linejoin="round" stroke-linecap="round" /><path d="M509,275 L554,230" fill="none" stroke="#65a2cb" stroke-width="1" stroke-linejoin="round" stroke-linecap="round" /><path d="M523,275 L568,230" fill="none" stroke="#65a2cb" stroke-width="1" stroke-linejoin="round" stroke-linecap="round" /><path d="M537,275 L582,230" fill="none" stroke="#65a2cb" stroke-width="1" stroke-linejoin="round" stroke-linecap="round" /><path d="M551,275 L596,230" fill="none" stroke="#65a2cb" stroke-width="1" stroke-linejoin="round" stroke-linecap="round" /><path d="M565,275 L610,230" fill="none" stroke="#65a2cb" stroke-width="1" stroke-linejoin="round" stroke-linecap="round" /><path d="M579,275 L624,230" fill="none" stroke="#65a2cb" stroke-width="1" stroke-linejoin="round" stroke-linecap="round" /><path d="M593,275 L638,230" fill="none" stroke="#65a2cb" stroke-width="1" stroke-linejoin="round" stroke-linecap="round" /><path d="M607,275 L652,230" fill="none" stroke="#65a2cb" stroke-width="1" stroke-linejoin="round" stroke-linecap="round" /><path d="M621,275 L655,241" fill="none" stroke="#65a2cb" stroke-width="1" stroke-linejoin="round" stroke-linecap="round" /><path d="M635,275 L655,255" fill="none" stroke="#65a2cb" stroke-width="1" stroke-linejoin="round" stroke-linecap="round" /><path d="M649,275 L655,269" fill="none" stroke="#65a2cb" stroke-width="1" stroke-linejoin="round" stroke-linecap="round" /><path d="M370,218 Q400,212 430,218 L406,252.5 L430,287 Q400,293 370,287 L394,252.5 Z" fill="#ee8b31" stroke="#be571d" stroke-width="2" stroke-linejoin="round" stroke-linecap="round" /><rect x="145" y="210" width="240" height="20" rx="0" fill="#d2eafa" stroke="#173d59" stroke-width="2.3"/><path d="M145,219 L154,210" fill="none" stroke="#65a2cb" stroke-width="1" stroke-linejoin="round" stroke-linecap="round" /><path d="M148,230 L168,210" fill="none" stroke="#65a2cb" stroke-width="1" stroke-linejoin="round" stroke-linecap="round" /><path d="M162,230 L182,210" fill="none" stroke="#65a2cb" stroke-width="1" stroke-linejoin="round" stroke-linecap="round" /><path d="M176,230 L196,210" fill="none" stroke="#65a2cb" stroke-width="1" stroke-linejoin="round" stroke-linecap="round" /><path d="M190,230 L210,210" fill="none" stroke="#65a2cb" stroke-width="1" stroke-linejoin="round" stroke-linecap="round" /><path d="M204,230 L224,210" fill="none" stroke="#65a2cb" stroke-width="1" stroke-linejoin="round" stroke-linecap="round" /><path d="M218,230 L238,210" fill="none" stroke="#65a2cb" stroke-width="1" stroke-linejoin="round" stroke-linecap="round" /><path d="M232,230 L252,210" fill="none" stroke="#65a2cb" stroke-width="1" stroke-linejoin="round" stroke-linecap="round" /><path d="M246,230 L266,210" fill="none" stroke="#65a2cb" stroke-width="1" stroke-linejoin="round" stroke-linecap="round" /><path d="M260,230 L280,210" fill="none" stroke="#65a2cb" stroke-width="1" stroke-linejoin="round" stroke-linecap="round" /><path d="M274,230 L294,210" fill="none" stroke="#65a2cb" stroke-width="1" stroke-linejoin="round" stroke-linecap="round" /><path d="M288,230 L308,210" fill="none" stroke="#65a2cb" stroke-width="1" stroke-linejoin="round" stroke-linecap="round" /><path d="M302,230 L322,210" fill="none" stroke="#65a2cb" stroke-width="1" stroke-linejoin="round" stroke-linecap="round" /><path d="M316,230 L336,210" fill="none" stroke="#65a2cb" stroke-width="1" stroke-linejoin="round" stroke-linecap="round" /><path d="M330,230 L350,210" fill="none" stroke="#65a2cb" stroke-width="1" stroke-linejoin="round" stroke-linecap="round" /><path d="M344,230 L364,210" fill="none" stroke="#65a2cb" stroke-width="1" stroke-linejoin="round" stroke-linecap="round" /><path d="M358,230 L378,210" fill="none" stroke="#65a2cb" stroke-width="1" stroke-linejoin="round" stroke-linecap="round" /><path d="M372,230 L385,217" fill="none" stroke="#65a2cb" stroke-width="1" stroke-linejoin="round" stroke-linecap="round" /><rect x="145" y="275" width="240" height="20" rx="0" fill="#d2eafa" stroke="#173d59" stroke-width="2.3"/><path d="M145,289 L159,275" fill="none" stroke="#65a2cb" stroke-width="1" stroke-linejoin="round" stroke-linecap="round" /><path d="M153,295 L173,275" fill="none" stroke="#65a2cb" stroke-width="1" stroke-linejoin="round" stroke-linecap="round" /><path d="M167,295 L187,275" fill="none" stroke="#65a2cb" stroke-width="1" stroke-linejoin="round" stroke-linecap="round" /><path d="M181,295 L201,275" fill="none" stroke="#65a2cb" stroke-width="1" stroke-linejoin="round" stroke-linecap="round" /><path d="M195,295 L215,275" fill="none" stroke="#65a2cb" stroke-width="1" stroke-linejoin="round" stroke-linecap="round" /><path d="M209,295 L229,275" fill="none" stroke="#65a2cb" stroke-width="1" stroke-linejoin="round" stroke-linecap="round" /><path d="M223,295 L243,275" fill="none" stroke="#65a2cb" stroke-width="1" stroke-linejoin="round" stroke-linecap="round" /><path d="M237,295 L257,275" fill="none" stroke="#65a2cb" stroke-width="1" stroke-linejoin="round" stroke-linecap="round" /><path d="M251,295 L271,275" fill="none" stroke="#65a2cb" stroke-width="1" stroke-linejoin="round" stroke-linecap="round" /><path d="M265,295 L285,275" fill="none" stroke="#65a2cb" stroke-width="1" stroke-linejoin="round" stroke-linecap="round" /><path d="M279,295 L299,275" fill="none" stroke="#65a2cb" stroke-width="1" stroke-linejoin="round" stroke-linecap="round" /><path d="M293,295 L313,275" fill="none" stroke="#65a2cb" stroke-width="1" stroke-linejoin="round" stroke-linecap="round" /><path d="M307,295 L327,275" fill="none" stroke="#65a2cb" stroke-width="1" stroke-linejoin="round" stroke-linecap="round" /><path d="M321,295 L341,275" fill="none" stroke="#65a2cb" stroke-width="1" stroke-linejoin="round" stroke-linecap="round" /><path d="M335,295 L355,275" fill="none" stroke="#65a2cb" stroke-width="1" stroke-linejoin="round" stroke-linecap="round" /><path d="M349,295 L369,275" fill="none" stroke="#65a2cb" stroke-width="1" stroke-linejoin="round" stroke-linecap="round" /><path d="M363,295 L383,275" fill="none" stroke="#65a2cb" stroke-width="1" stroke-linejoin="round" stroke-linecap="round" /><path d="M377,295 L385,287" fill="none" stroke="#65a2cb" stroke-width="1" stroke-linejoin="round" stroke-linecap="round" /><path d="M137,252 L75,252" fill="none" stroke="#007f83" stroke-width="3.2" stroke-linejoin="round" stroke-linecap="round" /><path d="M75,252 L89,256.48 L89,247.52 Z" fill="#007f83" stroke="#007f83" stroke-width="1" stroke-linejoin="round" stroke-linecap="round" /><text x="106" y="238" fill="#007f83" font-family="Arial, Helvetica, sans-serif" font-size="21" text-anchor="middle">Δσ</text><path d="M663,252 L725,252" fill="none" stroke="#007f83" stroke-width="3.2" stroke-linejoin="round" stroke-linecap="round" /><path d="M725,252 L711,247.52 L711,256.48 Z" fill="#007f83" stroke="#007f83" stroke-width="1" stroke-linejoin="round" stroke-linecap="round" /><path d="M675,230 L675,275" fill="none" stroke="#173d59" stroke-width="1.2" stroke-linejoin="round" stroke-linecap="round" /><path d="M675,230 L672.44,238 L677.56,238 Z" fill="#173d59" stroke="#173d59" stroke-width="1" stroke-linejoin="round" stroke-linecap="round" /><path d="M675,275 L677.56,267 L672.44,267 Z" fill="#173d59" stroke="#173d59" stroke-width="1" stroke-linejoin="round" stroke-linecap="round" /><text x="693" y="258.5" fill="#173d59" font-family="Arial, Helvetica, sans-serif" font-size="20" text-anchor="middle">t</text><text x="32" y="43" fill="#173d59" font-family="Arial, Helvetica, sans-serif" font-size="26" text-anchor="start">Giunto tra spessori diversi</text><text x="32" y="74" fill="#55738a" font-family="Arial, Helvetica, sans-serif" font-size="17" text-anchor="start">NTC · PDF-130-T1 · dettaglio 17</text><path d="M32,92 L768,92" fill="none" stroke="#dbe8f0" stroke-width="1" stroke-linejoin="round" stroke-linecap="round" /><path d="M32,410 L768,410" fill="none" stroke="#dbe8f0" stroke-width="1" stroke-linejoin="round" stroke-linecap="round" /><ellipse cx="38" cy="444" rx="5" ry="5" fill="#8bc6eb" stroke="#8bc6eb" stroke-width="2.3"/><text x="52" y="451" fill="#426177" font-family="Arial, Helvetica, sans-serif" font-size="17" text-anchor="start">Metallo</text><ellipse cx="213" cy="444" rx="5" ry="5" fill="#ee8b31" stroke="#ee8b31" stroke-width="2.3"/><text x="227" y="451" fill="#426177" font-family="Arial, Helvetica, sans-serif" font-size="17" text-anchor="start">Saldatura</text><ellipse cx="416" cy="444" rx="5" ry="5" fill="#007f83" stroke="#007f83" stroke-width="2.3"/><text x="430" y="451" fill="#426177" font-family="Arial, Helvetica, sans-serif" font-size="17" text-anchor="start">Azione</text><text x="767" y="483" fill="#718b9e" font-family="Arial, Helvetica, sans-serif" font-size="14" text-anchor="end">SCHEMA NON IN SCALA</text></svg>
